# xmcd
#
# Track frame offsets: 
#        150
#        15310
#        28393
#        42565
#        58063
#        71353
#        82973
#        96923
#        114475
#        127318
#        139865
#        154993
#        172415
#        187725
#        203413
#        218035
#        233715
#
# Disc length: 3343 seconds
#
# Revision: 4
# Processed by: cddbd v1.5.2PL0 Copyright (c) Steve Scherf et al.
# Submitted via: ExactAudioCopy v0.99pb4
#
DISCID=f10d0d11
DTITLE=Various Artist - Kickin' Country
DYEAR=1993
DGENRE=Country
TTITLE0=Mary Chapin Carpenter - Down At The Twist And Shout
TTITLE1=Vince Gill - Liza Jane
TTITLE2=Shenandoah - Rock My Baby
TTITLE3=Ricky Van Shelton - I Am A Simple Man
TTITLE4=Hal Ketchum - Small Town Saturday Night
TTITLE5=Steve Earle - Guitar Town
TTITLE6=Patty Loveless - I'm That Kind Of Girl
TTITLE7=Ricky Skaggs - Life's Too Long (To Live Like This)
TTITLE8=Kentucky Headhunters - Dumas Walker
TTITLE9=Aaron Tippin - There Ain't Nothin' Wrong With The Radio
TTITLE10=Sawyer Brown - Betty's Bein' Bad
TTITLE11=Tanya Tucker - Some Kind Of Trouble
TTITLE12=Charlie Daniels - Honky Tonk Life
TTITLE13=Doug Stone - A Jukebox With A Country Song
TTITLE14=Rosanne Cash - My Baby Thinks He's A Train
TTITLE15=Joe Diffie - Next Thing Smokin'
TTITLE16=Rodney Crowell - Lovin'  All Night
EXTD=
EXTT0=
EXTT1=
EXTT2=
EXTT3=
EXTT4=
EXTT5=
EXTT6=
EXTT7=
EXTT8=
EXTT9=
EXTT10=
EXTT11=
EXTT12=
EXTT13=
EXTT14=
EXTT15=
EXTT16=
PLAYORDER=
